<svg width="39" height="38" viewBox="0 0 39 38" fill="none" xmlns="http://www.w3.org/2000/svg">
<g filter="url(#filter0_d_118_551)">
<path d="M18.75 20.3344V20.2635C18.75 18.4307 20.0507 16.7871 22.0372 15.652C23.2551 14.9543 24.0355 13.8783 24.0473 12.6722C24.0591 10.5912 21.5997 8.81752 18.7263 8.82934C15.853 8.84117 13.4645 10.5439 13.4645 12.6604" stroke="#7F838B" stroke-width="2" stroke-linecap="round" stroke-linejoin="round"/>
<path d="M18.7499 24.8749V25.4189" stroke="#7F838B" stroke-width="2" stroke-linecap="round" stroke-linejoin="round"/>
<path d="M32.75 17C32.75 24.7331 26.4831 31 18.75 31C11.0169 31 4.75 24.7331 4.75 17C4.75 9.2669 11.0169 3 18.75 3C24.7449 3 29.8649 6.77196 31.8632 12.0811" stroke="#7F838B" stroke-width="2" stroke-linecap="round" stroke-linejoin="round"/>
</g>
<defs>
<filter id="filter0_d_118_551" x="0.75" y="0" width="38" height="38" filterUnits="userSpaceOnUse" color-interpolation-filters="sRGB">
<feFlood flood-opacity="0" result="BackgroundImageFix"/>
<feColorMatrix in="SourceAlpha" type="matrix" values="0 0 0 0 0 0 0 0 0 0 0 0 0 0 0 0 0 0 127 0" result="hardAlpha"/>
<feOffset dx="1" dy="2"/>
<feGaussianBlur stdDeviation="2"/>
<feComposite in2="hardAlpha" operator="out"/>
<feColorMatrix type="matrix" values="0 0 0 0 0 0 0 0 0 0 0 0 0 0 0 0 0 0 0.45 0"/>
<feBlend mode="normal" in2="BackgroundImageFix" result="effect1_dropShadow_118_551"/>
<feBlend mode="normal" in="SourceGraphic" in2="effect1_dropShadow_118_551" result="shape"/>
</filter>
</defs>
</svg>
